<svg width="30" height="30" viewBox="0 0 30 30" fill="none" xmlns="http://www.w3.org/2000/svg">
<path d="M15 27.6C14.625 27.6 14.25 27.5125 13.9375 27.3375C11.6 26.0625 7.4875 24.7125 4.9125 24.375L4.55 24.325C2.9125 24.125 1.5625 22.5875 1.5625 20.925V5.82501C1.5625 4.83751 1.95 3.93751 2.6625 3.28751C3.375 2.63751 4.3 2.32501 5.275 2.41251C8.025 2.62501 12.175 4.00001 14.525 5.47501L14.825 5.65001C14.9125 5.70001 15.1 5.70001 15.175 5.66251L15.375 5.53751C17.725 4.06251 21.875 2.66251 24.6375 2.42501C24.6625 2.42501 24.7625 2.42501 24.7875 2.42501C25.7 2.33751 26.6375 2.66251 27.3375 3.31251C28.05 3.96251 28.4375 4.86251 28.4375 5.85001V20.9375C28.4375 22.6125 27.0875 24.1375 25.4375 24.3375L25.025 24.3875C22.45 24.725 18.325 26.0875 16.0375 27.35C15.7375 27.525 15.375 27.6 15 27.6ZM4.975 4.27501C4.575 4.27501 4.2125 4.41251 3.925 4.67501C3.6125 4.96251 3.4375 5.37501 3.4375 5.82501V20.925C3.4375 21.6625 4.075 22.375 4.7875 22.475L5.1625 22.525C7.975 22.9 12.2875 24.3125 14.7875 25.675C14.9 25.725 15.0625 25.7375 15.125 25.7125C17.625 24.325 21.9625 22.9 24.7875 22.525L25.2125 22.475C25.925 22.3875 26.5625 21.6625 26.5625 20.925V5.83751C26.5625 5.37501 26.3875 4.97501 26.075 4.67501C25.75 4.38751 25.3375 4.25001 24.875 4.27501C24.85 4.27501 24.75 4.27501 24.725 4.27501C22.3375 4.48751 18.4875 5.77501 16.3875 7.08751L16.1875 7.22501C15.5 7.65001 14.525 7.65001 13.8625 7.23751L13.5625 7.06251C11.425 5.75001 7.575 4.47501 5.125 4.27501C5.075 4.27501 5.025 4.27501 4.975 4.27501Z" fill="#F4F9FC"/>
<path d="M15 26.55C14.4875 26.55 14.0625 26.125 14.0625 25.6125V6.86249C14.0625 6.34999 14.4875 5.92499 15 5.92499C15.5125 5.92499 15.9375 6.34999 15.9375 6.86249V25.6125C15.9375 26.1375 15.5125 26.55 15 26.55Z" fill="#F4F9FC"/>
<path d="M9.6875 11.55H6.875C6.3625 11.55 5.9375 11.125 5.9375 10.6125C5.9375 10.1 6.3625 9.67499 6.875 9.67499H9.6875C10.2 9.67499 10.625 10.1 10.625 10.6125C10.625 11.125 10.2 11.55 9.6875 11.55Z" fill="#F4F9FC"/>
<path d="M10.625 15.3H6.875C6.3625 15.3 5.9375 14.875 5.9375 14.3625C5.9375 13.85 6.3625 13.425 6.875 13.425H10.625C11.1375 13.425 11.5625 13.85 11.5625 14.3625C11.5625 14.875 11.1375 15.3 10.625 15.3Z" fill="#F4F9FC"/>
</svg>
