<svg width="30" height="30" viewBox="0 0 30 30" fill="none" xmlns="http://www.w3.org/2000/svg">
<path d="M27.5 6.06251V20.925C27.5 22.1375 26.5125 23.25 25.3 23.4L24.9125 23.45C22.8625 23.725 19.975 24.575 17.65 25.55C16.8375 25.8875 15.9375 25.275 15.9375 24.3875V7.00001C15.9375 6.53751 16.2 6.11251 16.6125 5.88751C18.9 4.65001 22.3625 3.55001 24.7125 3.35001H24.7875C26.2875 3.35001 27.5 4.56251 27.5 6.06251Z" fill="#F4F9FC"/>
<path d="M13.3875 5.88751C11.1 4.65001 7.6375 3.55001 5.2875 3.35001H5.2C3.7 3.35001 2.4875 4.56251 2.4875 6.06251V20.925C2.4875 22.1375 3.475 23.25 4.6875 23.4L5.075 23.45C7.125 23.725 10.0125 24.575 12.3375 25.55C13.15 25.8875 14.05 25.275 14.05 24.3875V7.00001C14.05 6.52501 13.8 6.11251 13.3875 5.88751ZM6.25 9.67501H9.0625C9.575 9.67501 10 10.1 10 10.6125C10 11.1375 9.575 11.55 9.0625 11.55H6.25C5.7375 11.55 5.3125 11.1375 5.3125 10.6125C5.3125 10.1 5.7375 9.67501 6.25 9.67501ZM10 15.3H6.25C5.7375 15.3 5.3125 14.8875 5.3125 14.3625C5.3125 13.85 5.7375 13.425 6.25 13.425H10C10.5125 13.425 10.9375 13.85 10.9375 14.3625C10.9375 14.8875 10.5125 15.3 10 15.3Z" fill="#F4F9FC"/>
</svg>
