<svg width="30" height="30" viewBox="0 0 30 30" fill="none" xmlns="http://www.w3.org/2000/svg">
<path d="M22.2375 28.4375H7.7625C4.3375 28.4375 1.5625 25.65 1.5625 22.225V12.9625C1.5625 11.2625 2.6125 9.125 3.9625 8.075L10.7 2.825C12.725 1.25 15.9625 1.175 18.0625 2.65L25.7875 8.0625C27.275 9.1 28.4375 11.325 28.4375 13.1375V22.2375C28.4375 25.65 25.6625 28.4375 22.2375 28.4375ZM11.85 4.3L5.1125 9.55C4.225 10.25 3.4375 11.8375 3.4375 12.9625V22.225C3.4375 24.6125 5.375 26.5625 7.7625 26.5625H22.2375C24.625 26.5625 26.5625 24.625 26.5625 22.2375V13.1375C26.5625 11.9375 25.7 10.275 24.7125 9.6L16.9875 4.1875C15.5625 3.1875 13.2125 3.2375 11.85 4.3Z" fill="#F4F9FC"/>
<path d="M15 23.4375C14.4875 23.4375 14.0625 23.0125 14.0625 22.5V18.75C14.0625 18.2375 14.4875 17.8125 15 17.8125C15.5125 17.8125 15.9375 18.2375 15.9375 18.75V22.5C15.9375 23.0125 15.5125 23.4375 15 23.4375Z" fill="#F4F9FC"/>
</svg>
