<svg width="30" height="30" viewBox="0 0 30 30" fill="none" xmlns="http://www.w3.org/2000/svg">
<path d="M18.75 28.4375H11.25C4.4625 28.4375 1.5625 25.5375 1.5625 18.75V11.25C1.5625 4.4625 4.4625 1.5625 11.25 1.5625H18.75C25.5375 1.5625 28.4375 4.4625 28.4375 11.25V18.75C28.4375 25.5375 25.5375 28.4375 18.75 28.4375ZM11.25 3.4375C5.4875 3.4375 3.4375 5.4875 3.4375 11.25V18.75C3.4375 24.5125 5.4875 26.5625 11.25 26.5625H18.75C24.5125 26.5625 26.5625 24.5125 26.5625 18.75V11.25C26.5625 5.4875 24.5125 3.4375 18.75 3.4375H11.25Z" fill="#F4F9FC"/>
<path d="M10.85 19.1625C10.325 19.1625 9.8375 19.0375 9.4125 18.8C8.375 18.2125 7.8125 17.05 7.8125 15.525V3.04999C7.8125 2.53749 8.2375 2.11249 8.75 2.11249C9.2625 2.11249 9.6875 2.53749 9.6875 3.04999V15.525C9.6875 16.3375 9.925 16.9375 10.3375 17.1625C10.775 17.4125 11.45 17.2875 12.1875 16.85L13.8375 15.8625C14.5125 15.4625 15.475 15.4625 16.15 15.8625L17.8 16.85C18.55 17.3 19.225 17.4125 19.65 17.1625C20.0625 16.925 20.3 16.325 20.3 15.525V3.04999C20.3 2.53749 20.725 2.11249 21.2375 2.11249C21.75 2.11249 22.175 2.53749 22.175 3.04999V15.525C22.175 17.05 21.6125 18.2125 20.575 18.8C19.5375 19.3875 18.175 19.2625 16.8375 18.4625L15.1875 17.475C15.1125 17.425 14.875 17.425 14.8 17.475L13.15 18.4625C12.375 18.925 11.575 19.1625 10.85 19.1625Z" fill="#F4F9FC"/>
<path d="M18.75 28.4375H11.25C4.4625 28.4375 1.5625 25.5375 1.5625 18.75V11.25C1.5625 4.4625 4.4625 1.5625 11.25 1.5625H18.75C25.5375 1.5625 28.4375 4.4625 28.4375 11.25V18.75C28.4375 25.5375 25.5375 28.4375 18.75 28.4375ZM11.25 3.4375C5.4875 3.4375 3.4375 5.4875 3.4375 11.25V18.75C3.4375 24.5125 5.4875 26.5625 11.25 26.5625H18.75C24.5125 26.5625 26.5625 24.5125 26.5625 18.75V11.25C26.5625 5.4875 24.5125 3.4375 18.75 3.4375H11.25Z" fill="#F4F9FC"/>
<path d="M10.85 19.1625C10.325 19.1625 9.8375 19.0375 9.4125 18.8C8.375 18.2125 7.8125 17.05 7.8125 15.525V3.04999C7.8125 2.53749 8.2375 2.11249 8.75 2.11249C9.2625 2.11249 9.6875 2.53749 9.6875 3.04999V15.525C9.6875 16.3375 9.925 16.9375 10.3375 17.1625C10.775 17.4125 11.45 17.2875 12.1875 16.85L13.8375 15.8625C14.5125 15.4625 15.475 15.4625 16.15 15.8625L17.8 16.85C18.55 17.3 19.225 17.4125 19.65 17.1625C20.0625 16.925 20.3 16.325 20.3 15.525V3.04999C20.3 2.53749 20.725 2.11249 21.2375 2.11249C21.75 2.11249 22.175 2.53749 22.175 3.04999V15.525C22.175 17.05 21.6125 18.2125 20.575 18.8C19.5375 19.3875 18.175 19.2625 16.8375 18.4625L15.1875 17.475C15.1125 17.425 14.875 17.425 14.8 17.475L13.15 18.4625C12.375 18.925 11.575 19.1625 10.85 19.1625Z" fill="#F4F9FC"/>
</svg>
