<svg width="30" height="30" viewBox="0 0 30 30" fill="none" xmlns="http://www.w3.org/2000/svg">
<path d="M27.5 9.76253V20.2375C27.5 24.25 24.25 27.5 20.2375 27.5H9.7625C5.75 27.5 2.5 24.25 2.5 20.2375V9.76253C2.5 6.65003 3.775 4.38753 6.0375 3.28753C6.8625 2.88753 7.8125 3.51253 7.8125 4.42503V15.525C7.8125 17.0125 8.3875 18.2 9.425 18.8C10.475 19.3875 11.8 19.2625 13.15 18.45L14.775 17.475C14.875 17.425 15.125 17.425 15.2 17.4625L16.85 18.45C17.75 18.9875 18.525 19.1625 19.15 19.1625C19.8 19.1625 20.3 18.9625 20.6 18.7875C21.6125 18.2 22.1875 17.0125 22.1875 15.525V4.42503C22.1875 3.51253 23.15 2.88753 23.9625 3.28753C26.225 4.38753 27.5 6.65003 27.5 9.76253Z" fill="#F4F9FC"/>
<path d="M19.0625 2.5C19.75 2.5 20.3125 3.0625 20.3125 3.75V15.525C20.3125 16.325 20.075 16.925 19.6625 17.1625C19.2375 17.4125 18.5625 17.2875 17.8125 16.8375L16.1625 15.85C15.525 15.4625 14.475 15.4625 13.8375 15.85L12.1875 16.8375C11.4375 17.2875 10.7625 17.4 10.3375 17.1625C9.925 16.925 9.6875 16.325 9.6875 15.525V3.75C9.6875 3.0625 10.25 2.5 10.9375 2.5H19.0625Z" fill="#F4F9FC"/>
</svg>
